<?xml version="1.0" encoding="UTF-8"?>
<!DOCTYPE svg PUBLIC "-//W3C//DTD SVG 1.1//EN" "http://www.w3.org/Graphics/SVG/1.1/DTD/svg11.dtd">
<!-- Creator: CorelDRAW X6 -->
<svg xmlns="http://www.w3.org/2000/svg" xml:space="preserve" width="9.16666in" height="9.16666in" version="1.1" style="shape-rendering:geometricPrecision; text-rendering:geometricPrecision; image-rendering:optimizeQuality; fill-rule:evenodd; clip-rule:evenodd"
viewBox="0 0 9167 9167"
 xmlns:xlink="http://www.w3.org/1999/xlink">
 <defs>
  <style type="text/css">
   <![CDATA[
    .fil0 {fill:#DA3265;fill-rule:nonzero}
    .fil1 {fill:#FEFEFE;fill-rule:nonzero}
   ]]>
  </style>
 </defs>
 <g id="Layer_x0020_1">
  <metadata id="CorelCorpID_0Corel-Layer"/>
  <polygon class="fil0" points="0,9167 9167,9167 9167,0 0,0 "/>
  <polygon class="fil1" points="0,9167 9167,9167 9167,4583 0,4583 "/>
  <path class="fil0" d="M208 5996l0 0c-115,0 -208,-93 -208,-208l0 -1413c0,-115 93,-208 208,-208l0 0c115,0 208,93 208,208l0 1413c0,115 -93,208 -208,208z"/>
  <path class="fil1" d="M625 5877l0 0c-115,0 -208,-93 -208,-208l0 -1413c0,-115 93,-208 208,-208l0 0c115,0 208,93 208,208l0 1413c0,115 -93,208 -208,208z"/>
  <path class="fil0" d="M1042 5028l0 0c-115,0 -208,-93 -208,-208l0 -1413c0,-115 93,-208 208,-208l0 0c115,0 208,93 208,208l0 1413c0,115 -93,208 -208,208z"/>
  <path class="fil0" d="M1875 5498l0 0c-115,0 -208,-93 -208,-208l0 -1413c0,-115 93,-208 208,-208l0 0c115,0 208,93 208,208l0 1413c0,115 -93,208 -208,208z"/>
  <path class="fil1" d="M2292 5877l0 0c-115,0 -208,-93 -208,-208l0 -1413c0,-115 93,-208 208,-208l0 0c115,0 208,93 208,208l0 1413c0,115 -93,208 -208,208z"/>
  <path class="fil1" d="M1458 6113l0 0c-115,0 -208,-93 -208,-208l0 -1413c0,-115 93,-208 208,-208l0 0c115,0 208,93 208,208l0 1413c0,115 -93,208 -208,208z"/>
  <path class="fil0" d="M2709 6155l0 0c-115,0 -208,-93 -208,-208l0 -640c0,-115 93,-208 208,-208l0 0c115,0 208,93 208,208l0 640c0,115 -93,208 -208,208z"/>
  <path class="fil0" d="M2709 4833l0 0c-115,0 -208,-93 -208,-208l0 -640c0,-115 93,-208 208,-208l0 0c115,0 208,93 208,208l0 640c0,115 -93,208 -208,208z"/>
  <path class="fil1" d="M3125 5877l0 0c-115,0 -208,-93 -208,-208l0 -1904c0,-115 93,-208 208,-208l0 0c115,0 208,93 208,208l0 1904c0,115 -93,208 -208,208z"/>
  <path class="fil0" d="M3542 5337l0 0c-115,0 -208,-93 -208,-208l0 -1413c0,-115 93,-208 208,-208l0 0c115,0 208,93 208,208l0 1413c0,115 -93,208 -208,208z"/>
  <path class="fil1" d="M3959 5877l0 0c-115,0 -208,-93 -208,-208l0 -1413c0,-115 93,-208 208,-208l0 0c115,0 208,93 208,208l0 1413c0,115 -93,208 -208,208z"/>
  <path class="fil0" d="M4375 4794l0 0c-115,0 -208,-93 -208,-208l0 -1413c0,-115 93,-208 208,-208l0 0c115,0 208,93 208,208l0 1413c0,115 -93,208 -208,208z"/>
  <path class="fil1" d="M4792 5877l0 0c-115,0 -208,-93 -208,-208l0 -1413c0,-115 93,-208 208,-208l0 0c115,0 208,93 208,208l0 1413c0,115 -93,208 -208,208z"/>
  <path class="fil0" d="M5209 5781l0 0c-115,0 -208,-93 -208,-208l0 -335c0,-115 93,-208 208,-208l0 0c115,0 208,93 208,208l0 335c0,115 -93,208 -208,208z"/>
  <path class="fil0" d="M5209 4848l0 0c-115,0 -208,-93 -208,-208l0 -335c0,-115 93,-208 208,-208l0 0c115,0 208,93 208,208l0 335c0,115 -93,208 -208,208z"/>
  <path class="fil0" d="M5209 6456l0 0c-115,0 -208,-93 -208,-208l0 0c0,-115 93,-208 208,-208l0 0c115,0 208,93 208,208l0 0c0,115 -93,208 -208,208z"/>
  <path class="fil0" d="M1042 5835l0 0c-115,0 -208,-93 -208,-208l0 0c0,-115 93,-208 208,-208l0 0c115,0 208,93 208,208l0 0c0,115 -93,208 -208,208z"/>
  <path class="fil1" d="M4792 3715l0 0c-115,0 -208,-93 -208,-208l0 0c0,-115 93,-208 208,-208l0 0c115,0 208,93 208,208l0 0c0,115 -93,208 -208,208z"/>
  <path class="fil1" d="M5626 5877l0 0c-115,0 -208,-93 -208,-208l0 -1745c0,-115 93,-208 208,-208l0 0c115,0 208,93 208,208l0 1745c0,115 -93,208 -208,208z"/>
  <path class="fil0" d="M6042 5418l0 0c-115,0 -208,-93 -208,-208l0 -835c0,-115 93,-208 208,-208l0 0c115,0 208,93 208,208l0 835c0,115 -93,208 -208,208z"/>
  <path class="fil1" d="M6459 5626l0 0c-115,0 -208,-93 -208,-208l0 -1244c0,-115 93,-208 208,-208l0 0c115,0 208,93 208,208l0 1244c0,115 -93,208 -208,208z"/>
  <path class="fil0" d="M6876 5337l0 0c-115,0 -208,-93 -208,-208l0 -754c0,-115 93,-208 208,-208l0 0c115,0 208,93 208,208l0 754c0,115 -93,208 -208,208z"/>
  <path class="fil1" d="M7292 6181l0 0c-115,0 -208,-93 -208,-208l0 -1531c0,-115 93,-208 208,-208l0 0c115,0 208,93 208,208l0 1531c0,115 -93,208 -208,208z"/>
  <path class="fil0" d="M7709 5418l0 0c-115,0 -208,-93 -208,-208l0 -835c0,-115 93,-208 208,-208l0 0c115,0 208,93 208,208l0 835c0,115 -93,208 -208,208z"/>
  <path class="fil0" d="M7709 6043l0 0c-115,0 -208,-93 -208,-208l0 0c0,-115 93,-208 208,-208l0 0c115,0 208,93 208,208l0 0c0,115 -93,208 -208,208z"/>
  <path class="fil1" d="M8126 3958l0 0c-115,0 -208,-93 -208,-208l0 -666c0,-115 93,-208 208,-208l0 0c115,0 208,93 208,208l0 666c0,115 -93,208 -208,208z"/>
  <path class="fil1" d="M8126 5334l0 0c-115,0 -208,-93 -208,-208l0 -666c0,-115 93,-208 208,-208l0 0c115,0 208,93 208,208l0 666c0,115 -93,208 -208,208z"/>
  <path class="fil0" d="M8543 5418l0 0c-115,0 -208,-93 -208,-208l0 -835c0,-115 93,-208 208,-208l0 0c115,0 208,93 208,208l0 835c0,115 -93,208 -208,208z"/>
  <path class="fil1" d="M8959 3740l0 0c-115,0 -208,-93 -208,-208l0 0c0,-115 93,-208 208,-208l0 0c115,0 208,93 208,208l0 0c0,115 -93,208 -208,208z"/>
  <path class="fil1" d="M2292 3740l0 0c-115,0 -208,-93 -208,-208l0 0c0,-115 93,-208 208,-208l0 0c115,0 208,93 208,208l0 0c0,115 -93,208 -208,208z"/>
  <path class="fil1" d="M8959 5027l0 0c-115,0 -208,-93 -208,-208l0 -360c0,-115 93,-208 208,-208l0 0c115,0 208,93 208,208l0 360c0,115 -93,208 -208,208z"/>
  <path class="fil0" d="M3201 8680c0,-9 -1,-17 -4,-23 -3,-7 -6,-12 -11,-15 -5,-3 -10,-5 -16,-5 -9,0 -17,4 -23,11 -6,8 -9,19 -9,33 0,14 3,24 9,32 6,8 14,11 23,11 6,0 11,-2 15,-5 5,-3 8,-8 11,-15 3,-7 4,-15 4,-24zm-65 -50l0 4c6,-8 13,-14 19,-18 7,-4 14,-6 23,-6 10,0 19,3 28,8 9,5 15,13 20,24 5,11 7,23 7,37 0,11 -1,20 -4,29 -3,9 -7,16 -12,22 -5,6 -11,11 -18,14 -7,3 -14,5 -22,5 -9,0 -17,-2 -24,-6 -6,-4 -13,-10 -18,-17l0 52c0,15 -5,23 -16,23 -6,0 -10,-2 -12,-6 -2,-4 -3,-10 -3,-17l0 -149c0,-7 1,-11 4,-15 3,-3 6,-5 11,-5 5,0 9,2 11,5 3,3 4,8 4,14z"/>
  <path class="fil0" d="M3346 8732l0 -4c-4,5 -8,10 -13,13 -4,4 -9,6 -14,8 -5,2 -11,3 -18,3 -8,0 -15,-2 -21,-5 -6,-3 -11,-8 -15,-14 -4,-7 -6,-18 -6,-31l0 -68c0,-7 2,-12 4,-15 3,-3 7,-5 12,-5 5,0 9,2 12,5 3,3 5,9 5,15l0 55c0,8 1,15 2,20 1,5 4,10 7,13 3,3 8,5 14,5 6,0 11,-2 16,-5 5,-3 9,-8 11,-13 2,-5 3,-16 3,-32l0 -42c0,-7 2,-12 5,-15 3,-3 7,-5 12,-5 5,0 9,2 12,5 3,3 4,9 4,15l0 100c0,7 -1,11 -4,15 -3,3 -6,5 -11,5 -5,0 -8,-2 -11,-5 -3,-3 -4,-8 -4,-14z"/>
  <path class="fil0" d="M3442 8682c0,14 3,24 9,32 6,7 14,11 24,11 8,0 15,-4 21,-11 6,-8 9,-18 9,-32 0,-9 -1,-17 -4,-23 -3,-7 -6,-12 -11,-15 -5,-4 -10,-5 -16,-5 -6,0 -12,2 -17,5 -5,4 -9,9 -12,16 -3,7 -4,15 -4,24zm-2 -102l0 53c6,-7 13,-12 19,-16 6,-4 14,-5 24,-5 11,0 21,3 29,8 8,6 15,13 19,24 5,10 7,22 7,37 0,10 -1,20 -4,29 -3,9 -6,16 -11,23 -5,6 -11,11 -18,15 -7,3 -15,5 -23,5 -5,0 -10,-1 -14,-2 -4,-1 -8,-3 -11,-5 -3,-2 -6,-4 -8,-6 -2,-2 -5,-5 -9,-10l0 3c0,6 -2,11 -5,15 -3,3 -7,5 -11,5 -5,0 -8,-2 -11,-5 -3,-3 -4,-8 -4,-15l0 -150c0,-7 1,-12 4,-16 3,-4 6,-5 11,-5 5,0 9,2 12,5 3,3 4,8 4,15z"/>
  <path class="fil0" d="M3561 8730l0 -149c0,-7 1,-12 4,-16 3,-4 7,-5 12,-5 5,0 9,2 12,5 3,3 5,9 5,16l0 149c0,7 -2,12 -5,16 -3,3 -7,5 -12,5 -5,0 -9,-2 -12,-5 -3,-4 -5,-9 -5,-16z"/>
  <path class="fil0" d="M3661 8631l0 99c0,7 -2,12 -5,16 -3,3 -7,5 -12,5 -5,0 -9,-2 -12,-5 -3,-4 -5,-9 -5,-16l0 -98c0,-7 2,-12 5,-15 3,-3 7,-5 12,-5 5,0 9,2 12,5 3,3 5,8 5,14zm-16 -36c-5,0 -8,-1 -12,-4 -3,-3 -5,-7 -5,-13 0,-5 2,-9 5,-12 3,-3 7,-5 12,-5 4,0 8,1 11,4 3,3 5,7 5,12 0,5 -2,9 -5,12 -3,3 -7,5 -12,5z"/>
  <path class="fil0" d="M3813 8708c0,4 -1,9 -4,14 -3,5 -6,10 -11,14 -5,4 -11,8 -19,11 -8,3 -16,4 -26,4 -20,0 -36,-6 -48,-19 -11,-12 -17,-29 -17,-50 0,-14 3,-27 8,-37 5,-11 13,-19 23,-25 10,-6 22,-9 35,-9 9,0 16,1 24,4 7,3 13,6 18,10 5,4 9,9 11,13 3,5 4,9 4,13 0,4 -1,8 -4,10 -3,3 -6,4 -11,4 -3,0 -5,-1 -7,-2 -2,-1 -4,-4 -6,-7 -4,-6 -8,-11 -13,-14 -4,-3 -10,-5 -17,-5 -10,0 -18,4 -24,12 -6,8 -9,19 -9,33 0,6 1,12 2,18 2,5 4,10 7,14 3,4 6,7 11,9 4,2 9,3 13,3 7,0 12,-2 17,-5 5,-3 9,-8 13,-15 2,-4 4,-7 7,-9 2,-2 5,-3 9,-3 4,0 7,2 10,5 3,3 4,7 4,10z"/>
  <path class="fil0" d="M3868 8681c0,9 1,17 4,24 3,7 7,11 11,15 5,3 10,5 16,5 6,0 11,-2 16,-5 5,-3 9,-8 12,-15 3,-6 4,-15 4,-24 0,-9 -1,-17 -4,-24 -3,-7 -7,-12 -12,-15 -5,-3 -10,-5 -16,-5 -6,0 -11,2 -16,5 -5,4 -8,9 -11,15 -3,7 -4,14 -4,23zm65 50l0 -3c-4,5 -9,10 -13,13 -4,3 -9,6 -14,8 -5,2 -11,3 -16,3 -8,0 -15,-2 -22,-5 -7,-4 -13,-9 -17,-15 -5,-6 -9,-14 -11,-23 -3,-9 -4,-18 -4,-28 0,-21 5,-38 15,-50 10,-12 23,-18 40,-18 10,0 18,2 24,5 7,3 13,9 19,16l0 -51c0,-7 1,-12 4,-16 3,-4 6,-5 12,-5 5,0 9,2 12,5 3,3 4,8 4,15l0 152c0,7 -1,11 -4,15 -3,3 -7,5 -11,5 -4,0 -8,-2 -11,-5 -3,-3 -4,-8 -4,-15z"/>
  <path class="fil0" d="M4087 8681c0,-14 -3,-25 -9,-33 -6,-8 -14,-12 -24,-12 -6,0 -12,2 -17,5 -5,4 -9,9 -11,15 -3,7 -4,15 -4,24 0,9 1,17 4,24 3,7 6,12 11,15 5,4 11,5 17,5 10,0 18,-4 24,-12 6,-8 9,-19 9,-33zm33 0c0,10 -2,20 -5,28 -3,9 -7,16 -13,22 -6,6 -13,11 -21,14 -8,3 -17,5 -27,5 -10,0 -19,-2 -27,-5 -8,-3 -15,-8 -21,-14 -6,-6 -10,-14 -13,-22 -3,-9 -4,-18 -4,-28 0,-10 2,-20 5,-29 3,-9 7,-16 13,-22 6,-6 13,-11 21,-14 8,-3 17,-5 27,-5 10,0 19,2 27,5 8,3 15,8 21,14 6,6 10,14 13,22 3,9 5,18 5,28z"/>
  <path class="fil0" d="M4260 8653c-2,6 -4,16 -4,31l0 46c0,7 -2,13 -5,16 -3,4 -7,5 -12,5 -5,0 -9,-2 -12,-5 -3,-4 -5,-9 -5,-16l0 -55c0,-9 0,-15 -1,-20 -1,-5 -2,-9 -5,-12 -2,-3 -6,-5 -12,-5 -11,0 -18,4 -21,12 -3,8 -5,19 -5,33l0 47c0,7 -2,13 -5,16 -3,4 -7,6 -12,6 -5,0 -9,-2 -12,-6 -3,-4 -5,-9 -5,-16l0 -99c0,-6 1,-11 4,-15 3,-3 7,-5 11,-5 5,0 8,2 11,5 3,3 5,8 5,13l0 3c6,-7 12,-12 18,-16 7,-3 14,-5 22,-5 8,0 15,2 21,5 6,3 11,9 15,16 6,-7 12,-12 18,-16 6,-3 13,-5 21,-5 9,0 17,2 23,6 7,4 11,9 15,16 3,6 4,16 4,29l0 67c0,7 -2,13 -5,16 -3,4 -7,5 -12,5 -5,0 -9,-2 -12,-6 -3,-4 -5,-9 -5,-16l0 -58c0,-7 0,-13 -1,-18 -1,-5 -2,-8 -5,-11 -3,-3 -7,-5 -12,-5 -4,0 -8,1 -12,4 -4,3 -7,6 -9,11l0 0z"/>
  <path class="fil0" d="M4446 8682c-5,2 -12,4 -21,6 -9,2 -16,4 -19,5 -4,1 -7,3 -10,6 -3,3 -5,7 -5,12 0,5 2,10 6,13 4,4 9,6 15,6 7,0 13,-2 18,-5 6,-3 10,-7 12,-12 3,-5 5,-14 5,-26l0 -5zm2 50c-8,6 -16,11 -23,14 -7,3 -16,5 -25,5 -9,0 -16,-2 -22,-5 -6,-4 -11,-8 -15,-14 -3,-6 -5,-12 -5,-19 0,-9 3,-17 9,-24 6,-7 14,-11 24,-13 2,-1 7,-2 16,-3 8,-2 15,-3 21,-5 6,-1 12,-3 19,-5 0,-9 -2,-16 -5,-20 -3,-4 -10,-6 -19,-6 -8,0 -15,1 -19,4 -4,2 -8,6 -11,11 -3,5 -5,8 -6,10 -1,2 -4,2 -8,2 -4,0 -7,-1 -10,-4 -3,-3 -4,-6 -4,-10 0,-6 2,-12 6,-18 4,-6 11,-10 19,-14 9,-4 20,-6 33,-6 14,0 26,2 34,5 8,4 14,9 18,17 3,8 5,18 5,31 0,8 0,15 0,21 0,6 0,12 0,19 0,6 1,13 3,20 2,7 3,12 3,14 0,4 -2,7 -5,10 -3,3 -7,4 -11,4 -3,0 -7,-2 -10,-5 -3,-3 -7,-8 -10,-14z"/>
  <path class="fil0" d="M4545 8631l0 99c0,7 -2,12 -5,16 -3,3 -7,5 -12,5 -5,0 -9,-2 -12,-5 -3,-4 -5,-9 -5,-16l0 -98c0,-7 2,-12 5,-15 3,-3 7,-5 12,-5 5,0 9,2 12,5 3,3 5,8 5,14zm-16 -36c-5,0 -8,-1 -12,-4 -3,-3 -5,-7 -5,-13 0,-5 2,-9 5,-12 3,-3 7,-5 12,-5 4,0 8,1 11,4 3,3 5,7 5,12 0,5 -2,9 -5,12 -3,3 -7,5 -11,5z"/>
  <path class="fil0" d="M4609 8630l0 4c6,-8 12,-14 19,-18 7,-4 15,-6 24,-6 9,0 16,2 23,6 7,4 12,9 15,17 2,4 4,9 4,14 1,5 1,11 1,19l0 64c0,7 -2,12 -5,16 -3,3 -7,5 -12,5 -5,0 -9,-2 -12,-5 -3,-4 -5,-9 -5,-16l0 -57c0,-11 -1,-20 -4,-26 -3,-6 -9,-9 -18,-9 -6,0 -11,2 -16,6 -5,4 -8,9 -11,15 -2,5 -2,15 -2,29l0 43c0,7 -2,12 -5,16 -3,3 -7,5 -12,5 -5,0 -9,-2 -12,-5 -3,-4 -5,-9 -5,-16l0 -99c0,-7 1,-11 4,-15 3,-3 7,-5 11,-5 3,0 6,1 8,2 2,1 4,4 6,6 1,3 2,6 2,11z"/>
  <path class="fil0" d="M4749 8632l27 78 29 -82c2,-7 5,-11 7,-14 2,-3 5,-4 10,-4 4,0 8,1 11,4 3,3 4,6 4,10 0,2 0,3 -1,5 0,2 -1,4 -2,6 -1,2 -1,4 -2,6l-32 82c-1,2 -2,5 -3,9 -1,4 -3,7 -5,9 -2,3 -4,4 -6,6 -3,1 -6,2 -9,2 -5,0 -8,-1 -11,-3 -3,-2 -5,-5 -6,-7 -1,-3 -4,-8 -7,-16l-31 -81c-1,-2 -2,-4 -2,-6 -1,-2 -1,-4 -2,-6 0,-2 -1,-4 -1,-5 0,-2 1,-5 2,-7 1,-2 3,-4 6,-6 2,-1 5,-2 8,-2 5,0 9,2 11,5 2,3 4,9 7,16z"/>
  <path class="fil0" d="M4884 8670l60 0c-1,-12 -4,-21 -9,-26 -5,-6 -12,-9 -21,-9 -8,0 -15,3 -20,9 -5,6 -8,15 -10,26zm65 20l-65 0c0,8 2,15 4,21 3,6 7,10 12,13 5,3 10,5 16,5 4,0 8,0 11,-1 3,-1 6,-3 10,-5 3,-2 6,-4 8,-7 3,-2 6,-5 10,-10 2,-2 4,-2 7,-2 3,0 6,1 8,3 2,2 3,5 3,8 0,3 -1,7 -4,11 -2,4 -6,8 -11,12 -5,4 -11,7 -18,10 -7,2 -15,4 -25,4 -21,0 -38,-6 -49,-19 -12,-13 -18,-30 -18,-51 0,-10 1,-20 4,-28 3,-9 7,-16 13,-22 6,-6 12,-11 21,-14 8,-3 17,-5 27,-5 13,0 24,3 33,9 9,6 16,13 21,22 5,9 7,18 7,28 0,9 -2,14 -7,17 -5,3 -11,4 -20,4z"/>
  <path class="fil0" d="M5121 8708c0,4 -1,9 -4,14 -2,5 -6,10 -11,14 -5,4 -11,8 -19,11 -8,3 -16,4 -26,4 -20,0 -36,-6 -48,-19 -11,-12 -17,-29 -17,-50 0,-14 3,-27 8,-37 5,-11 13,-19 23,-25 10,-6 22,-9 36,-9 9,0 16,1 24,4 7,3 13,6 18,10 5,4 9,9 11,13 3,5 4,9 4,13 0,4 -1,8 -4,10 -3,3 -6,4 -11,4 -3,0 -5,-1 -7,-2 -2,-1 -4,-4 -6,-7 -4,-6 -8,-11 -13,-14 -4,-3 -10,-5 -17,-5 -10,0 -18,4 -24,12 -6,8 -9,19 -9,33 0,6 1,12 2,18 2,5 4,10 7,14 3,4 6,7 11,9 4,2 9,3 14,3 7,0 12,-2 17,-5 5,-3 9,-8 13,-15 2,-4 4,-7 7,-9 2,-2 5,-3 9,-3 4,0 7,2 10,5 3,3 4,7 4,10z"/>
  <path class="fil0" d="M5152 8614l4 0 0 -21c0,-6 0,-10 0,-13 0,-3 1,-6 2,-8 1,-2 3,-4 6,-6 2,-1 5,-2 8,-2 4,0 8,2 11,5 2,2 4,5 4,8 1,3 1,8 1,13l0 23 12 0c5,0 8,1 11,3 3,2 4,5 4,9 0,5 -2,8 -5,10 -3,2 -8,3 -15,3l-6 0 0 63c0,5 0,10 1,12 0,3 1,5 3,7 2,2 4,3 8,3 2,0 5,0 8,-1 3,-1 6,-1 8,-1 3,0 5,1 7,3 2,2 3,5 3,8 0,6 -3,10 -9,13 -6,3 -14,4 -25,4 -10,0 -18,-2 -23,-5 -5,-4 -9,-9 -10,-15 -2,-6 -3,-15 -3,-26l0 -66 -4 0c-5,0 -8,-1 -11,-4 -3,-2 -4,-5 -4,-9 0,-4 1,-7 4,-9 3,-2 6,-3 11,-3z"/>
  <path class="fil0" d="M5328 8681c0,-14 -3,-25 -9,-33 -6,-8 -14,-12 -24,-12 -6,0 -12,2 -17,5 -5,4 -9,9 -11,15 -3,7 -4,15 -4,24 0,9 1,17 4,24 3,7 6,12 11,15 5,4 11,5 17,5 10,0 18,-4 24,-12 6,-8 9,-19 9,-33zm33 0c0,10 -2,20 -5,28 -3,9 -7,16 -13,22 -6,6 -13,11 -21,14 -8,3 -17,5 -27,5 -10,0 -19,-2 -27,-5 -8,-3 -15,-8 -21,-14 -6,-6 -10,-14 -13,-22 -3,-9 -5,-18 -5,-28 0,-10 1,-20 5,-29 3,-9 7,-16 13,-22 6,-6 13,-11 21,-14 8,-3 17,-5 27,-5 10,0 19,2 27,5 8,3 15,8 21,14 6,6 10,14 13,22 3,9 5,18 5,28z"/>
  <path class="fil0" d="M5420 8701l0 29c0,7 -2,12 -5,16 -3,3 -7,5 -12,5 -5,0 -9,-2 -12,-5 -3,-4 -5,-9 -5,-16l0 -96c0,-15 5,-23 16,-23 5,0 9,2 12,5 2,4 4,9 4,16 4,-7 8,-12 12,-16 4,-4 10,-5 17,-5 7,0 14,2 20,5 7,4 10,8 10,14 0,4 -1,8 -4,10 -3,3 -6,4 -9,4 -1,0 -4,-1 -9,-2 -5,-2 -9,-2 -12,-2 -5,0 -9,1 -12,4 -3,3 -5,7 -7,12 -2,5 -3,11 -4,19 -1,7 -1,16 -1,26z"/>
  <path class="fil0" d="M5596 8706c0,10 -2,18 -7,24 -4,7 -11,12 -20,15 -9,3 -19,5 -32,5 -12,0 -22,-2 -30,-6 -8,-4 -15,-8 -19,-14 -4,-6 -6,-11 -6,-17 0,-4 1,-7 4,-10 3,-3 6,-4 10,-4 3,0 6,1 8,3 2,2 4,4 5,7 3,6 7,11 12,14 5,3 11,5 19,5 7,0 12,-2 16,-5 4,-3 6,-7 6,-11 0,-6 -2,-11 -7,-13 -4,-3 -12,-5 -22,-8 -11,-3 -21,-6 -28,-9 -7,-3 -13,-8 -17,-13 -4,-5 -6,-12 -6,-20 0,-7 2,-13 6,-20 4,-6 10,-11 17,-15 8,-4 17,-6 28,-6 9,0 16,1 23,3 7,2 13,4 17,7 5,3 8,7 10,10 2,4 4,8 4,11 0,4 -1,7 -4,10 -3,2 -6,4 -11,4 -3,0 -6,-1 -9,-3 -2,-2 -5,-5 -8,-9 -3,-3 -5,-6 -9,-8 -3,-2 -8,-3 -14,-3 -6,0 -11,1 -15,4 -4,3 -6,6 -6,10 0,4 1,7 4,9 3,2 7,4 12,6 5,2 12,3 20,6 10,3 19,6 25,9 6,4 11,8 15,13 3,5 5,11 5,17z"/>
  <path class="fil0" d="M5633 8751c-5,0 -9,-2 -13,-5 -4,-3 -5,-8 -5,-14 0,-5 2,-10 5,-13 3,-4 8,-5 13,-5 5,0 9,2 13,5 4,4 5,8 5,13 0,6 -2,11 -5,14 -4,3 -8,5 -13,5z"/>
  <path class="fil0" d="M5779 8681c0,-14 -3,-25 -9,-33 -6,-8 -14,-12 -24,-12 -6,0 -12,2 -17,5 -5,4 -9,9 -11,15 -3,7 -4,15 -4,24 0,9 1,17 4,24 3,7 6,12 11,15 5,4 11,5 17,5 10,0 18,-4 24,-12 6,-8 9,-19 9,-33zm33 0c0,10 -2,20 -5,28 -3,9 -7,16 -13,22 -6,6 -13,11 -21,14 -8,3 -17,5 -27,5 -10,0 -19,-2 -27,-5 -8,-3 -15,-8 -21,-14 -6,-6 -10,-14 -13,-22 -3,-9 -4,-18 -4,-28 0,-10 2,-20 5,-29 3,-9 7,-16 13,-22 6,-6 13,-11 21,-14 8,-3 17,-5 27,-5 10,0 19,2 27,5 8,3 15,8 21,14 6,6 10,14 13,22 3,9 5,18 5,28z"/>
  <path class="fil0" d="M5871 8701l0 29c0,7 -2,12 -5,16 -3,3 -7,5 -12,5 -5,0 -9,-2 -12,-5 -3,-4 -5,-9 -5,-16l0 -96c0,-15 5,-23 16,-23 5,0 9,2 12,5 2,4 4,9 4,16 4,-7 8,-12 12,-16 4,-4 10,-5 17,-5 7,0 14,2 20,5 7,4 10,8 10,14 0,4 -1,8 -4,10 -3,3 -6,4 -9,4 -1,0 -4,-1 -9,-2 -5,-2 -9,-2 -12,-2 -5,0 -9,1 -12,4 -3,3 -5,7 -7,12 -2,5 -3,11 -3,19 -1,7 -1,16 -1,26z"/>
  <path class="fil0" d="M5966 8680c0,14 3,24 9,32 6,7 13,11 23,11 5,0 11,-2 16,-5 5,-3 9,-8 12,-14 3,-6 5,-14 5,-22 0,-14 -3,-25 -9,-33 -6,-8 -14,-12 -23,-12 -9,0 -17,4 -23,11 -6,8 -9,18 -9,32zm96 -44l0 100c0,11 -1,21 -4,29 -2,8 -6,15 -11,20 -5,5 -12,9 -20,12 -8,3 -19,4 -31,4 -11,0 -22,-2 -30,-5 -9,-3 -16,-8 -21,-13 -5,-5 -7,-11 -7,-16 0,-4 1,-8 4,-10 3,-3 6,-4 10,-4 5,0 9,2 13,7 2,2 4,5 5,7 2,2 4,4 6,6 2,2 5,3 8,4 3,1 7,1 11,1 9,0 15,-1 20,-4 5,-2 8,-6 10,-10 2,-4 3,-9 3,-14 0,-5 1,-13 1,-25 -5,7 -11,13 -18,17 -7,4 -15,6 -24,6 -11,0 -21,-3 -29,-9 -8,-6 -15,-14 -19,-25 -4,-11 -7,-23 -7,-37 0,-10 1,-20 4,-28 3,-8 6,-15 12,-21 5,-6 11,-10 17,-13 7,-3 14,-4 22,-4 9,0 17,2 24,6 7,4 13,10 19,18l0 -5c0,-6 1,-11 4,-14 3,-3 6,-5 11,-5 6,0 11,2 13,7 2,4 3,11 3,19z"/>
  <path class="fil0" d="M4632 8301l49 0c-3,26 -14,47 -32,62 -17,15 -37,22 -60,22 -32,0 -57,-11 -76,-34 -18,-21 -27,-49 -27,-82 0,-34 9,-62 27,-83 18,-21 43,-31 76,-31 24,0 45,7 61,20 18,14 28,34 32,59l-49 0c-4,-22 -18,-33 -41,-33 -38,0 -57,22 -57,67 0,21 5,38 15,52 10,13 23,20 41,20 26,0 40,-13 42,-38zm-193 -31c0,44 14,81 42,111 28,30 62,45 102,45 40,0 74,-15 102,-45 28,-30 42,-67 42,-111 0,-44 -14,-81 -42,-111 -28,-30 -62,-45 -102,-45 -40,0 -74,15 -102,45 -28,30 -42,67 -42,111zm-50 0c0,-56 19,-103 57,-143 38,-39 83,-59 137,-59 53,0 99,20 137,59 38,40 57,87 57,143 0,56 -19,103 -57,143 -38,39 -83,59 -137,59 -53,0 -99,-20 -137,-59 -38,-39 -57,-87 -57,-143z"/>
  <polygon class="fil0" points="4468,8397 4496,8421 4704,8155 4676,8131 "/>
 </g>
</svg>
